<svg width="48" height="42" viewBox="0 0 48 42" fill="none" xmlns="http://www.w3.org/2000/svg">
<path d="M36.0004 42V39C36.0004 38.606 35.9228 38.2159 35.7721 37.8518C35.6213 37.488 35.4004 37.1573 35.1218 36.8785C34.8431 36.6 34.5123 36.379 34.1485 36.2283C33.7845 36.0776 33.3943 35.9999 33.0004 35.9999H20.9994C17.0211 35.9999 13.2057 34.4196 10.3926 31.6065C7.57949 28.7935 5.99908 24.9783 5.99902 21C5.99902 19.0302 6.38702 17.0796 7.14086 15.2597C7.89471 13.4398 8.99963 11.7863 10.3925 10.3934C11.7855 9.00048 13.4391 7.89561 15.259 7.1418C17.0789 6.38799 19.0295 6.00004 20.9994 6.00006H32.9995C33.3934 6.00018 33.7838 5.92267 34.1478 5.77197C34.5119 5.62125 34.8428 5.40028 35.1214 5.1217C35.4001 4.84309 35.6211 4.51233 35.7721 4.1483C35.9228 3.78426 36.0004 3.39408 36.0004 3.00003V0L21.0001 0C18.2423 -1.5828e-10 15.5115 0.543183 12.9636 1.59853C10.4158 2.65388 8.10073 4.20074 6.15071 6.15076C4.20066 8.10081 2.6538 10.4158 1.59847 12.9637C0.543132 15.5115 -2.95473e-05 18.2423 1.20553e-09 21C-1.04442e-09 26.5694 2.21249 31.9109 6.15075 35.8492C10.089 39.7874 15.4305 42 21.0001 42H36.0004Z" fill="black"/>
<path d="M11.9987 21C11.9987 23.3869 12.9469 25.676 14.6347 27.3637C16.3224 29.0515 18.6116 29.9996 20.9984 29.9996H35.9999C37.5913 29.9996 39.1172 30.6319 40.2424 31.7571C41.3676 32.8822 41.9999 34.4084 41.9999 35.9997V41.9998H48V35.9999C48 32.8174 46.7358 29.7652 44.4854 27.5146C42.2347 25.2643 39.1825 24 35.9999 24H20.9989C20.2032 24 19.4401 23.6839 18.8775 23.1214C18.3149 22.5587 17.9988 21.7957 17.9988 21C17.9988 20.2043 18.3149 19.4413 18.8775 18.8786C19.4401 18.316 20.2032 18 20.9989 18H35.9999C39.1825 18 42.2347 16.7357 44.4854 14.4853C46.7358 12.2349 48 9.18263 48 6.00006V0L41.999 0V6.00006C41.999 7.59116 41.3669 9.11711 40.242 10.2423C39.117 11.3674 37.5911 11.9997 35.9999 11.9999H20.9989C19.8169 11.9998 18.6466 12.2326 17.5546 12.6849C16.4626 13.1371 15.4704 13.8001 14.6347 14.6358C13.7989 15.4716 13.1359 16.4638 12.6837 17.5557C12.2314 18.6477 11.9986 19.8181 11.9987 21Z" fill="black"/>
</svg>
